<?xml version="1.0" encoding="UTF-8" standalone="no"?>
<!-- Created with Inkscape (http://www.inkscape.org/) -->

<svg
   xmlns:osb="http://www.openswatchbook.org/uri/2009/osb"
   xmlns:dc="http://purl.org/dc/elements/1.1/"
   xmlns:cc="http://creativecommons.org/ns#"
   xmlns:rdf="http://www.w3.org/1999/02/22-rdf-syntax-ns#"
   xmlns:svg="http://www.w3.org/2000/svg"
   xmlns="http://www.w3.org/2000/svg"
   xmlns:sodipodi="http://sodipodi.sourceforge.net/DTD/sodipodi-0.dtd"
   xmlns:inkscape="http://www.inkscape.org/namespaces/inkscape"
   width="24in"
   height="12in"
   viewBox="0 0 2160 1080"
   id="svg2"
   version="1.1"
   inkscape:version="0.91 r13725"
   sodipodi:docname="ita heart.svg">
  <defs
     id="defs4">
    <linearGradient
       id="linearGradient4149"
       osb:paint="solid">
      <stop
         style="stop-color:#000000;stop-opacity:1;"
         offset="0"
         id="stop4151" />
    </linearGradient>
  </defs>
  <sodipodi:namedview
     id="base"
     pagecolor="#ffffff"
     bordercolor="#666666"
     borderopacity="1.0"
     inkscape:pageopacity="0.0"
     inkscape:pageshadow="2"
     inkscape:zoom="0.7"
     inkscape:cx="484.92813"
     inkscape:cy="521.03566"
     inkscape:document-units="px"
     inkscape:current-layer="layer1"
     showgrid="false"
     units="in"
     inkscape:window-width="1920"
     inkscape:window-height="1018"
     inkscape:window-x="-8"
     inkscape:window-y="-8"
     inkscape:window-maximized="1" />
  <metadata
     id="metadata7">
    <rdf:RDF>
      <cc:Work
         rdf:about="">
        <dc:format>image/svg+xml</dc:format>
        <dc:type
           rdf:resource="http://purl.org/dc/dcmitype/StillImage" />
        <dc:title></dc:title>
      </cc:Work>
    </rdf:RDF>
  </metadata>
  <g
     inkscape:label="Layer 1"
     inkscape:groupmode="layer"
     id="layer1"
     transform="translate(0,27.637855)">
    <path
       style="fill:none;fill-opacity:1;stroke:#000000;stroke-width:0.09;stroke-miterlimit:4;stroke-dasharray:none;stroke-opacity:1"
       d="m 385.86452,765.20334 c -0.23775,-0.2335 -2.29156,-2.28755 -4.56405,-4.56449 -2.27251,-2.27693 -5.46789,-5.41325 -7.10083,-6.96955 -11.61624,-11.07095 -34.12417,-35.40895 -58.11625,-62.84169 -4.01472,-4.59051 -7.81493,-8.89238 -8.44488,-9.55976 -0.62996,-0.66736 -1.9562,-2.26158 -2.94722,-3.54266 -1.53617,-1.98575 -5.39894,-6.46595 -18.22,-21.13196 -1.18078,-1.35067 -3.69347,-4.20411 -5.58376,-6.34096 -1.89029,-2.13675 -6.52687,-7.45705 -10.30349,-11.82286 -3.77663,-4.36581 -7.64058,-8.79623 -8.58655,-9.84537 -0.94595,-1.04924 -4.26131,-4.84249 -7.36744,-8.42961 -3.10613,-3.58701 -7.2185,-8.27969 -9.1386,-10.42812 -1.9201,-2.14844 -4.60151,-5.30357 -5.95868,-7.01142 -1.35717,-1.70785 -4.58528,-5.45682 -7.17356,-8.33102 -12.0127,-13.33978 -17.84907,-19.89756 -20.77525,-23.34353 -1.74509,-2.05505 -6.11669,-7.10554 -9.71468,-11.22328 -7.0506,-8.0691 -11.34869,-13.33732 -11.32539,-13.88156 0.007,-0.1873 -0.23812,-0.35548 -0.547,-0.37376 -0.57732,-0.0337 -3.74574,-3.50397 -11.36141,-12.44198 -2.39589,-2.8119 -6.71986,-7.74735 -9.60882,-10.96768 -2.88897,-3.22033 -8.36862,-9.40552 -12.17701,-13.74492 -3.80839,-4.33935 -7.89104,-8.98069 -9.07257,-10.31409 -1.18153,-1.33337 -2.79752,-3.25546 -3.59112,-4.27135 -0.79357,-1.01589 -3.30252,-3.95694 -5.57541,-6.53572 -3.27167,-3.71194 -9.2463,-10.72288 -12.70312,-14.90646 -0.23552,-0.28502 -1.379,-1.7737 -2.5411,-3.30812 -1.16209,-1.53447 -2.64127,-3.31927 -3.28709,-3.96625 -1.2199,-1.22206 -11.56876,-13.85922 -14.92463,-18.22458 -1.05593,-1.37364 -2.88435,-3.6401 -4.06318,-5.0367 -1.17881,-1.39655 -3.10095,-3.8413 -4.27142,-5.4327 -1.17047,-1.5914 -3.19368,-4.2347 -4.49603,-5.87399 -1.30235,-1.63925 -2.865115,-3.71121 -3.472784,-4.60428 -0.607668,-0.89307 -1.462033,-2.04836 -1.898583,-2.56733 -1.193194,-1.41843 -5.623085,-7.45142 -8.359335,-11.38443 -1.332305,-1.91502 -3.043653,-4.35789 -3.80301,-5.42858 -0.759346,-1.07067 -2.619962,-3.77056 -4.134707,-5.99967 -1.514746,-2.22913 -3.660219,-5.37472 -4.76773,-6.99021 -1.107501,-1.61549 -2.009005,-3.04564 -2.003332,-3.17811 0.0057,-0.13247 -0.798637,-1.43229 -1.787366,-2.88851 -0.988719,-1.4562 -2.223313,-3.27393 -2.743521,-4.03939 -0.52021,-0.76547 -1.453149,-2.47728 -2.073191,-3.80403 -0.620031,-1.32675 -1.48504,-2.5429 -1.922228,-2.70256 -0.437188,-0.15965 -0.783057,-0.56667 -0.768587,-0.90449 0.02897,-0.67644 -2.493955,-5.4218 -3.022023,-5.68411 -0.181919,-0.0903 -0.32148,-0.38124 -0.310123,-0.64639 0.01133,-0.26515 -0.421905,-1.12822 -0.962795,-1.91796 -1.181378,-1.72489 -5.739416,-9.85775 -5.724174,-10.21359 0.0059,-0.13817 -0.654607,-1.39653 -1.467826,-2.79637 -0.813221,-1.39983 -2.529576,-4.75726 -3.814112,-7.46094 -1.284526,-2.70367 -3.096484,-6.46851 -4.026552,-8.3663 -1.537209,-3.13662 -4.384715,-9.48176 -8.795605,-19.59931 -0.899993,-2.06438 -1.75982,-4.22941 -1.910713,-4.81117 -0.150902,-0.58177 -0.683812,-2.08872 -1.184256,-3.34879 -3.21301,-8.09004 -7.509916,-20.5189 -8.060918,-23.31632 -0.147631,-0.7495 -0.503046,-1.77816 -0.789821,-2.28589 C 13.221533,283.29826 8.776152,266.30727 7.191266,257.58414 5.20235,246.63735 4.61571,242.13771 4.504408,236.97529 4.477638,235.7355 4.169933,232.88472 3.820535,230.64022 3.471126,228.3957 3.185648,224.53245 3.18614,222.0552 c 0.002,-10.31525 0.929131,-34.04829 1.484289,-37.99627 1.273681,-9.0577 4.757627,-27.57305 6.179472,-32.84065 0.462712,-1.71427 1.055497,-4.01976 1.317283,-5.12332 0.261785,-1.10355 0.957608,-3.60732 1.546278,-5.56392 0.58867,-1.95661 1.576331,-5.25861 2.194803,-7.3378 3.054505,-10.26862 9.747623,-27.44064 14.159282,-36.327344 1.023562,-2.061838 2.165726,-4.546489 2.538149,-5.521444 0.372423,-0.974957 1.169521,-2.507609 1.771323,-3.405879 0.601813,-0.898279 1.097931,-1.720421 1.102495,-1.826994 0.04232,-0.988313 8.397186,-15.507651 9.843884,-17.107017 1.03721,-1.146673 1.77572,-2.204839 1.641132,-2.351473 -0.134588,-0.146634 0.08557,-0.84343 0.489301,-1.54843 1.065471,-1.860639 5.00742,-7.439891 5.970995,-8.451063 0.453616,-0.476024 1.230506,-1.55908 1.726438,-2.406783 1.75304,-2.996576 10.182018,-12.679198 15.276485,-17.548556 9.141499,-8.737574 18.157287,-16.69264 20.499931,-18.088097 1.16915,-0.696435 3.7746,-2.7616 5.69414,-4.513371 0.41278,-0.376701 2.21294,-1.70404 4.00039,-2.94965 1.78744,-1.2456184 3.38724,-2.4512014 3.55509,-2.6790773 0.16786,-0.2278853 0.52418,-0.2656811 0.79182,-0.083999 0.26765,0.1816897 0.49485,0.1385131 0.50487,-0.095938 0.0231,-0.5403949 9.62807,-6.4202993 10.43147,-6.3858873 0.32874,0.014081 0.73397,-0.1751012 0.90048,-0.4204099 0.46474,-0.68461893 4.68498,-2.4932355 5.71479,-2.44912522 0.50277,0.0215347 0.93353,-0.21337568 0.95726,-0.52201348 0.046,-0.5973432 4.8514,-2.874833 5.9138,-2.8027624 0.34719,0.023879 1.27761,-0.4044966 2.06761,-0.9512306 0.78998,-0.5467246 2.79653,-1.4693316 4.45899,-2.0502405 1.66248,-0.5808983 3.82663,-1.4205646 4.80926,-1.8659024 2.40315,-1.0891679 6.15773,-2.4749649 6.64851,-2.4539419 0.21853,0.0094 1.37446,-0.370081 2.56873,-0.843207 3.6507,-1.446277 4.87073,-1.878223 6.05488,-2.143722 0.62533,-0.140208 1.54867,-0.402966 2.05188,-0.583907 2.47097,-0.888541 4.76066,-1.577147 6.6162,-1.989779 1.12549,-0.250285 2.41674,-0.628995 2.86945,-0.841586 0.45271,-0.212581 0.99426,-0.27033 1.20344,-0.128318 0.2092,0.142002 1.37788,-0.12609 2.59707,-0.595778 2.75801,-1.062476 7.41733,-2.274216 10.40347,-2.705593 8.17763,-1.181349 15.57534,-1.837694 22.15441,-1.965607 2.47933,-0.0482 6.33564,-0.1716 8.56959,-0.274204 12.06762,-0.554277 38.59135,2.650083 52.42697,6.333769 2.2044,0.586913 5.36561,1.412539 7.02489,1.834722 1.65927,0.422183 3.20895,0.897996 3.44371,1.057369 0.23476,0.159362 0.77826,0.383847 1.2078,0.498854 1.95853,0.524403 9.31138,3.006704 10.10249,3.410569 0.48485,0.247526 1.48045,0.6639426 2.21244,0.9253665 2.71403,0.9693022 4.74802,1.9055327 5.01426,2.3080048 0.29294,0.4428312 3.36136,1.8098731 6.80554,3.0320029 1.15909,0.4112889 2.09942,0.9348891 2.08962,1.1635694 -0.01,0.228671 0.3362,0.4319731 0.76887,0.4517669 0.43268,0.019534 1.57459,0.569104 2.53759,1.2206715 0.963,0.6515673 2.10469,1.20614287 2.53709,1.23239077 0.43238,0.026529 0.77888,0.2180212 0.76997,0.4261603 -0.009,0.2081322 0.82427,0.6699784 1.85154,1.02633583 1.89718,0.6581105 6.60489,3.7038312 6.84791,4.4303466 0.0731,0.2188434 0.50892,0.4139892 0.96827,0.4336635 0.45935,0.019677 0.94259,0.2274658 1.07389,0.4617488 0.13128,0.234293 0.85805,0.5900897 1.61501,0.7906579 0.75698,0.2005772 1.71223,0.7131261 2.12281,1.1390163 0.41057,0.4258791 1.81739,1.4069621 3.12625,2.180171 1.30886,0.773219 2.68741,1.693677 3.06344,2.04547 0.37603,0.351805 0.87555,0.647853 1.11008,0.657897 0.23451,0.01001 1.0117,0.600716 1.72708,1.312612 0.71539,0.711886 1.53746,1.304489 1.82682,1.316883 0.28938,0.0124 1.56404,0.831763 2.83257,1.820834 2.6235,2.045504 10.89007,8.000408 11.1198,8.010249 0.18096,0.0077 4.63723,3.442028 4.94532,3.811171 0.11781,0.14117 0.70935,0.526749 1.31452,0.856839 0.60519,0.330089 2.9657,2.004459 5.24559,3.720817 2.27988,1.716358 4.50758,3.382956 4.95044,3.703551 0.44286,0.320596 1.32323,1.060879 1.95639,1.645089 0.63316,0.584201 1.37931,1.072209 1.65813,1.084451 0.27878,0.01224 0.73944,0.328204 1.02366,0.70214 0.28421,0.373926 1.73612,1.363575 3.22645,2.199207 1.49033,0.835622 3.37612,2.039215 4.19063,2.674645 0.81454,0.635419 1.84374,1.170852 2.28713,1.189844 0.4434,0.01899 0.92254,0.242201 1.06476,0.49602 0.14224,0.25382 0.71198,0.480908 1.26611,0.504645 0.55415,0.02373 1.19234,0.223869 1.41821,0.444747 0.36609,0.357974 2.17558,0.998457 5.5239,1.955211 0.61182,0.174822 3.67572,0.521866 6.80864,0.771215 4.73018,0.376458 5.87551,0.338846 6.7533,-0.221534 0.58139,-0.37118 1.30999,-0.664039 1.61912,-0.650797 0.94205,0.04036 5.70531,-2.076399 8.49431,-3.774794 1.44862,-0.882155 2.8304,-1.595497 3.07064,-1.585207 0.24024,0.01025 0.5109,-0.13418 0.60149,-0.321044 0.0906,-0.186854 1.3298,-1.036643 2.75375,-1.888415 2.31642,-1.385582 3.53857,-2.243738 7.91387,-5.556997 0.67663,-0.512393 1.8084,-1.312223 2.51486,-1.777417 1.86814,-1.230021 8.29291,-5.840083 8.57031,-6.149596 0.23872,-0.266328 6.75716,-5.161203 9.87044,-7.411976 0.92609,-0.669541 2.20595,-1.526806 2.84402,-1.905038 0.63817,-0.378216 3.11226,-2.142847 5.49815,-3.921384 2.3859,-1.778547 5.17206,-3.709166 6.19147,-4.290274 1.0194,-0.581107 2.14244,-1.375787 2.49546,-1.765947 0.35302,-0.3901599 0.83296,-0.7011959 1.06646,-0.6911959 0.23348,0.01 1.08917,-0.436539 1.9016,-0.992301 0.81244,-0.5557718 1.9382,-1.1292606 2.50183,-1.2744332 0.56363,-0.1451638 1.03614,-0.5301861 1.05008,-0.8555873 0.0139,-0.3254111 0.38452,-0.695702 0.82347,-0.8228843 0.98126,-0.2843089 3.08541,-1.3994949 5.02743,-2.6645875 0.80281,-0.5230039 1.61159,-0.9443996 1.79743,-0.9364398 0.18572,0.00798 0.98373,-0.4263122 1.77341,-0.9650221 0.78968,-0.53872003 2.88488,-1.68787118 4.65605,-2.5536789 1.77117,-0.8657977 3.32695,-1.698843 3.45738,-1.8512108 0.28302,-0.3307416 11.71049,-5.4344106 14.80911,-6.6139795 1.19618,-0.4553677 3.05113,-1.1740057 4.12212,-1.5969707 1.07098,-0.422977 2.97289,-1.055526 4.22652,-1.405669 1.25363,-0.350143 2.6914,-0.79278 3.19503,-0.983643 1.74,-0.659402 4.57798,-1.535167 6.84667,-2.11277 7.68892,-1.957614 10.31176,-2.59831 12.74491,-3.113308 4.89392,-1.03583 9.26942,-1.781277 11.91479,-2.02992 2.48669,-0.233719 5.86537,-0.733898 13.2541,-1.962121 4.66002,-0.774639 15.76271,-1.281756 25.4982,-1.164649 12.50273,0.150408 28.42923,2.958829 43.13899,7.607004 8.00419,2.529269 7.55461,2.371985 24.85072,8.6938655 1.58536,0.5794844 3.38474,1.3498728 3.9985,1.7119799 1.56014,0.9203379 4.91207,2.2184488 5.85277,2.2665793 0.43253,0.02253 0.77784,0.2425587 0.76724,0.4898319 -0.0108,0.247271 0.26507,0.4617669 0.61266,0.4766549 0.34748,0.014883 1.39262,0.4569747 2.32259,0.982423 2.39263,1.35203848 9.44283,4.9264791 9.74225,4.9393036 0.13757,0.00592 0.95158,0.5981394 1.80883,1.316113 1.91214,1.6012441 3.02529,2.2641079 4.5757,2.7245872 1.26973,0.377122 10.33459,6.0633527 14.33697,8.9933137 5.98286,4.379773 10.00165,7.531721 12.20167,9.569664 1.31045,1.213972 2.77346,2.548572 3.25105,2.965762 6.25684,5.465712 8.61129,7.720794 13.21036,12.652644 6.68359,7.167333 15.62664,17.989907 18.61339,22.525365 0.46519,0.706426 1.99154,2.927678 3.39188,4.936114 4.74802,6.809905 9.94239,14.995371 9.91541,15.625064 -0.009,0.20904 1.26437,2.549562 2.82962,5.201173 2.69947,4.573083 3.52234,6.234148 4.65739,9.402835 0.54786,1.529231 0.88755,2.284351 2.25682,5.015721 3.90049,7.78111 10.17203,30.53662 10.499,38.09465 0.0265,0.62045 0.15225,1.43658 0.27874,1.81359 0.35104,1.04662 2.33885,16.67279 2.46293,19.36064 0.12263,2.65909 0.25981,5.14888 0.62774,11.39981 0.87931,14.94139 -0.10322,37.79587 -2.13874,49.69845 -0.33435,1.95679 -0.78351,5.07041 -0.99823,6.91916 -0.2147,1.84875 -0.59247,4.06211 -0.83925,4.91859 -0.24698,0.85646 -0.63066,2.86689 -0.85276,4.4676 -0.2221,1.60071 -0.76168,4.51654 -1.19908,6.47963 -3.11693,13.98937 -2.94832,13.27761 -3.9089,16.49782 -0.43771,1.46763 -1.26445,4.62661 -1.83719,7.01998 -0.57264,2.39337 -1.21358,4.59547 -1.42422,4.89353 -0.21064,0.29808 -0.66365,1.54335 -1.00675,2.7673 -0.34298,1.22394 -0.98834,3.52718 -1.43414,5.11832 -0.44591,1.59111 -1.14691,3.72368 -1.55794,4.73901 -0.41102,1.01533 -0.8652,2.43064 -1.00941,3.14514 -0.14421,0.71449 -0.58967,1.87714 -0.98996,2.58365 -0.40032,0.70653 -0.90915,1.97957 -1.13071,2.82899 -0.22165,0.84942 -0.56431,1.84817 -0.76148,2.21945 -0.19726,0.37127 -0.74916,1.77308 -1.22663,3.11512 -0.47737,1.34205 -1.50495,3.8316 -2.28354,5.53235 -0.77849,1.70074 -1.90373,4.28746 -2.50038,5.74826 -0.59666,1.46081 -1.48688,3.44953 -1.97823,4.41939 -0.91471,1.80547 -1.97935,4.05953 -5.2129,11.03704 -1.69839,3.66492 -3.20634,6.71613 -4.33109,8.7634 -5.14302,9.36124 -11.01162,19.76064 -11.82126,20.94759 -0.57458,0.84243 -1.88919,3.01567 -2.92144,4.8294 -1.03227,1.81374 -3.0836,5.14718 -4.55858,7.40763 -1.47509,2.26046 -3.34828,5.2205 -4.1628,6.57789 -3.34169,5.56912 -14.17935,21.7405 -19.69508,29.38817 -1.64652,2.28288 -3.40461,4.84383 -3.90712,5.69101 -0.50232,0.84717 -2.41616,3.50132 -4.25291,5.8981 -1.83674,2.39676 -3.55689,4.7001 -3.82253,5.11848 -0.42429,0.66817 -3.813,5.19708 -7.40712,9.89936 -0.6571,0.85962 -2.10007,2.60649 -3.20656,3.8819 -1.10659,1.27543 -2.01924,2.49077 -2.02824,2.70082 -0.009,0.21002 -0.81383,1.25467 -1.78848,2.32144 -0.97474,1.0668 -2.95105,3.43613 -4.39184,5.26522 -1.4409,1.82906 -2.94939,3.65672 -3.35218,4.06146 -0.40288,0.40472 -1.9372,2.20444 -3.40947,3.99933 -4.85703,5.92095 -6.64496,8.00054 -10.50807,12.22231 -2.10172,2.29684 -5.1561,5.71301 -6.78749,7.5915 -1.63127,1.87846 -3.34627,3.80447 -3.81095,4.28003 -0.46457,0.47556 -1.73786,1.94116 -2.82937,3.2569 -1.0916,1.31575 -2.50839,2.84165 -3.14849,3.39084 -0.64008,0.54921 -3.24742,3.37318 -5.79405,6.27546 -2.54674,2.90233 -6.0641,6.80822 -7.81641,8.6798 -1.7524,1.87158 -3.19179,3.53717 -3.19882,3.70127 -0.007,0.16409 -0.86792,1.13174 -1.91317,2.15026 -1.04514,1.01852 -2.66498,2.77222 -3.59957,3.8971 -0.93459,1.12483 -1.83599,2.14067 -2.00324,2.25737 -0.16715,0.1167 -1.04061,1.09273 -1.94089,2.16892 -0.90039,1.07621 -1.74827,2.05332 -1.88424,2.17136 -0.13588,0.11805 -3.43582,3.69103 -7.33311,7.94003 -6.64743,7.24735 -9.6274,10.56878 -14.66073,16.34102 -1.9364,2.22061 -2.92685,3.29655 -5.57951,6.06161 -0.56806,0.59215 -2.17655,2.34742 -3.5743,3.90061 -1.39784,1.55319 -2.6725,2.91973 -2.83254,3.03674 -0.16016,0.117 -1.35388,1.48466 -2.65289,3.03926 -1.29892,1.55459 -4.46574,5.06728 -7.03741,7.80599 -2.57155,2.73872 -5.02183,5.47136 -5.44495,6.07254 -0.65608,0.93215 -4.97813,5.82723 -8.43022,9.54799 -3.25072,3.50367 -8.71771,9.78457 -10.48594,12.04698 -1.13011,1.44585 -2.79121,3.38015 -3.69133,4.29836 -0.9001,0.91813 -2.5366,2.74517 -3.63677,4.06009 -1.09997,1.31484 -2.74207,3.15124 -3.64888,4.0809 -2.92133,2.99482 -3.49162,3.62249 -6.14512,6.76462 -4.22992,5.00867 -8.76968,10.0308 -11.17666,12.36424 -0.73965,0.71699 -1.92966,2.01657 -2.64441,2.88808 -0.71485,0.8714 -1.5673,1.84521 -1.89433,2.16391 -0.32715,0.31879 -1.14466,1.30872 -1.8168,2.19976 -0.67226,0.89115 -2.10883,2.48854 -3.19233,3.54974 -1.08361,1.0612 -1.97791,2.10999 -1.98736,2.33059 -0.01,0.2207 -0.8829,1.25928 -1.94105,2.30806 -1.05805,1.04867 -2.1566,2.30211 -2.44113,2.78538 -0.48229,0.819 -3.57502,4.30035 -5.8525,6.58798 -0.5468,0.5491 -1.61086,1.83395 -2.36475,2.85522 -0.75378,1.02128 -2.79939,3.41714 -4.5457,5.32416 -1.74641,1.907 -4.24745,4.63748 -5.55796,6.0677 -1.3105,1.43023 -2.39248,2.78527 -2.40435,3.01107 -0.01,0.22599 -1.2481,1.69314 -2.74704,3.26042 -1.49895,1.56739 -3.07362,3.34164 -3.49923,3.94268 -0.42562,0.60113 -1.45422,1.77318 -2.28576,2.60456 -0.83154,0.83147 -2.64246,2.90098 -4.0242,4.59891 -3.12087,3.83515 -8.18468,9.69052 -10.85781,12.55495 -1.11138,1.19103 -3.03005,3.30586 -4.26361,4.69944 -1.23348,1.39369 -2.62848,2.95543 -3.09986,3.47053 -0.47138,0.5152 -1.95088,2.1566 -3.28771,3.64755 -1.33682,1.49106 -2.5795,2.70459 -2.76154,2.69679 -0.18203,-0.007 -0.76351,0.7274 -1.29219,1.63369 -1.08629,1.86234 -1.00209,1.75184 -3.56807,4.68091 -1.04207,1.1895 -1.90929,2.50579 -1.92725,2.9251 -0.0179,0.41932 -0.64864,1.20675 -1.40147,1.74984 -0.75283,0.54307 -2.47437,2.25757 -3.82554,3.80987 -1.35128,1.55239 -2.59475,2.91793 -2.76319,3.03453 -0.16845,0.1167 -2.11285,2.36295 -4.32098,4.99186 -2.20812,2.62872 -4.86438,5.68835 -5.90286,6.79893 -1.03848,1.11068 -3.7884,4.08513 -6.11086,6.60994 -2.32248,2.52482 -4.39128,4.58338 -4.59718,4.57456 -0.20591,-0.009 -0.64027,0.52999 -0.96532,1.19729 -0.54697,1.12323 -4.87611,6.30351 -7.35508,8.8012 -0.58715,0.59172 -1.0741,1.22957 -1.08215,1.4175 -0.007,0.18803 -0.31816,0.32878 -0.68902,0.3129 -0.37096,-0.0159 -0.68467,0.2115 -0.69726,0.50533 -0.036,0.84162 -2.11277,3.4216 -2.73544,3.39834 -0.30911,-0.0131 -0.57077,0.18124 -0.58137,0.42851 -0.0236,0.55159 -0.98513,0.51001 -1.57355,-0.0675 z"
       id="path4147"
       inkscape:connector-curvature="0" />
  </g>
</svg>
